<svg width="60" height="60" viewBox="0 0 60 60" fill="none" xmlns="http://www.w3.org/2000/svg">
<path d="M58.1195 46.5307L54.0503 51.2781H22.1291C21.5452 51.2781 20.9905 51.5333 20.6105 51.9766L15.4476 58H1.73535L1.73535 2L58.1195 2V46.5307Z" fill="white" fill-opacity="0.05" stroke="#9B9B9B" stroke-width="2"/>
<path opacity="0.38" d="M28.1143 59.6549C27.9243 59.8741 27.6486 60 27.3586 60H19.3873C18.5395 60 18.0764 59.0111 18.6191 58.3598L21.7538 54.5982C21.9438 54.3702 22.2252 54.2384 22.522 54.2384H30.6186C31.4756 54.2384 31.9355 55.2458 31.3743 55.8933L28.1143 59.6549Z" fill="#D9D9D9"/>
<path d="M16.5813 9.12371C16.7878 8.60955 16.966 8.08396 17.1907 7.57666C18.021 7.59266 18.852 7.58123 19.6823 7.58275C19.8872 8.09311 20.0769 8.60955 20.2787 9.12143C21.1029 9.31262 21.8776 9.66986 22.6149 10.0743C23.1192 9.86943 23.6074 9.62568 24.1117 9.42002C24.699 10.0134 25.2924 10.5999 25.8804 11.1918C25.6595 11.6945 25.4348 12.1957 25.2139 12.6992C25.6527 13.4168 25.9779 14.2029 26.1752 15.0202C26.6871 15.219 27.2028 15.4102 27.7123 15.6143C27.707 16.4537 27.7215 17.2931 27.7055 18.1318C27.1959 18.3215 26.6909 18.5248 26.1805 18.7115C25.9817 19.5593 25.6085 20.3484 25.1956 21.1094C25.9581 20.7277 26.684 20.2753 27.4374 19.8761C27.5493 19.8152 27.6781 19.8061 27.8037 19.8038C30.1666 19.7832 32.5287 19.7558 34.8915 19.736C34.8931 20.1435 34.8923 20.551 34.8915 20.9585C32.5569 20.9852 30.2207 20.9951 27.8868 21.0347C27.1609 21.4087 26.4593 21.8338 25.7425 22.226C25.7882 22.3319 25.8347 22.4378 25.8804 22.5444C25.7441 22.68 25.6092 22.8187 25.4744 22.9565C26.2849 23.684 27.0847 24.4244 27.8921 25.1541C30.2237 25.1541 32.5554 25.1564 34.887 25.1533C34.8938 25.5631 34.8992 25.9729 34.8839 26.3827C32.4975 26.3721 30.111 26.382 27.7245 26.3782C27.5478 26.3835 27.3673 26.3355 27.2378 26.2113C26.358 25.4169 25.4851 24.6148 24.6061 23.8188C24.4392 23.9871 24.2717 24.1539 24.1018 24.3192C23.6067 24.09 23.1024 23.8813 22.6081 23.6512C22.0817 23.9597 21.5318 24.2263 20.9529 24.4205C22.4679 25.9348 23.9814 27.4507 25.4973 28.9634C25.578 29.0647 25.7174 29.019 25.8286 29.0312C26.713 29.0259 27.5981 29.0312 28.4832 29.0289C28.4847 29.4365 28.484 29.8447 28.484 30.2523C27.4457 30.2523 26.4075 30.2546 25.3693 30.2523C25.1789 30.2584 24.9884 30.1944 24.8574 30.0535C23.2494 28.45 21.646 26.8421 20.0388 25.2379C19.92 25.541 19.8042 25.845 19.6869 26.1489C18.8497 26.1512 18.0126 26.1496 17.1747 26.1496C16.9767 25.6378 16.7809 25.1244 16.5829 24.6125C15.7655 24.416 14.9802 24.0892 14.2627 23.6512C13.7531 23.8683 13.2549 24.1128 12.7392 24.3147C12.1626 23.7144 11.5647 23.1348 10.9789 22.5429C11.2013 22.0425 11.4215 21.5413 11.6477 21.0416C11.212 20.3202 10.8822 19.5356 10.6826 18.716C10.1715 18.5172 9.66037 18.3177 9.14697 18.1242C9.14697 17.2871 9.14697 16.4499 9.14697 15.6128C9.66037 15.4163 10.1745 15.2228 10.6849 15.0194C10.8814 14.2013 11.2089 13.4168 11.6477 12.6992C11.426 12.1965 11.2021 11.6945 10.9789 11.1925C11.5685 10.5992 12.1626 10.0104 12.7514 9.41621C13.2549 9.63635 13.7569 9.86105 14.2589 10.0858C14.9787 9.65006 15.7625 9.32023 16.5813 9.12371ZM17.9319 12.5172C16.6248 12.6588 15.4075 13.4305 14.7159 14.5471C14.0547 15.5922 13.8772 16.9237 14.2307 18.1074C14.5156 19.0908 15.1638 19.9607 16.0184 20.5228C16.9668 21.1543 18.1688 21.3942 19.2854 21.1627C20.3023 20.9654 21.2377 20.3888 21.8745 19.5722C22.6324 18.6155 22.9623 17.3305 22.7467 16.1277C22.5669 15.0514 21.9637 14.0536 21.0953 13.3924C20.2079 12.703 19.047 12.3884 17.9319 12.5172Z" fill="white"/>
<path d="M28.9463 15.7749C33.8464 15.7917 38.7466 15.7688 43.6467 15.7856C44.8434 15.8237 45.8747 16.9144 45.8511 18.1103C45.8549 23.4439 45.8519 28.7767 45.8526 34.1102C45.8656 34.6792 45.6714 35.2505 45.3019 35.6847C44.8639 36.2118 44.1845 36.5264 43.4997 36.5188C40.8116 36.5203 38.1242 36.518 35.4369 36.5196C35.4361 37.7566 35.4369 38.9936 35.4369 40.2306C36.6 40.2322 37.7632 40.2299 38.9271 40.2314C39.4534 40.2261 39.9958 40.3708 40.4079 40.7082C40.7377 40.9703 40.9761 41.3679 40.9807 41.7967C40.9891 42.336 40.9815 42.8753 40.9837 43.4146C34.1024 43.4154 27.221 43.4154 20.3396 43.4154C20.3412 42.8753 20.3343 42.3345 20.3419 41.7952C20.345 41.3854 20.5659 41.0038 20.8736 40.744C21.2712 40.4036 21.7983 40.2367 22.3178 40.2329C23.5069 40.2284 24.6967 40.2337 25.8865 40.2306C25.8865 38.9936 25.8865 37.7566 25.8865 36.5196C23.1732 36.5173 20.4607 36.5226 17.7483 36.5173C16.5516 36.5157 15.4822 35.4577 15.4723 34.2603C15.4639 31.362 15.47 28.4621 15.4692 25.563C15.5172 25.579 15.6132 25.6102 15.6612 25.6254C15.8265 26.0147 15.9407 26.4268 16.141 26.8C16.4008 27.2365 16.9309 27.4208 17.4192 27.3766C17.423 29.1118 17.4192 30.8478 17.4215 32.583C26.2475 32.5838 35.0736 32.5838 43.8996 32.583C43.8996 27.7598 43.9011 22.9358 43.8988 18.1119C43.9247 17.9222 43.7732 17.7257 43.5743 17.7379C38.6955 17.7318 33.816 17.7379 28.9364 17.7348C28.9417 17.0812 28.9227 16.4277 28.9463 15.7749Z" fill="white"/>
<path d="M36.2921 19.2227C36.3988 19.1626 36.526 19.1824 36.6433 19.1763C38.0677 19.1808 39.4929 19.1747 40.9173 19.1786C41.129 19.1534 41.3225 19.3431 41.3019 19.5548C41.3027 20.0896 41.3111 20.6251 41.2974 21.1598C41.2951 21.3563 41.0986 21.5018 40.9097 21.482C39.4334 21.4835 37.9565 21.4858 36.4803 21.4805C36.2975 21.4927 36.12 21.3396 36.1207 21.1537C36.1093 20.6213 36.1162 20.088 36.1177 19.5556C36.1093 19.4223 36.1741 19.2882 36.2921 19.2227Z" fill="white"/>
<path d="M36.3675 24.628C37.8795 24.5906 39.3954 24.6211 40.9089 24.6127C41.1092 24.5914 41.3111 24.7559 41.3004 24.9646C41.3065 25.4986 41.3065 26.0333 41.3004 26.5673C41.3111 26.7768 41.1077 26.9405 40.9059 26.9169C39.4327 26.9162 37.9588 26.9184 36.4848 26.9154C36.2929 26.9322 36.1108 26.7653 36.1192 26.5711C36.1124 26.0356 36.1131 25.4994 36.1184 24.9639C36.1131 24.8115 36.2213 24.6668 36.3675 24.628Z" fill="white"/>
<path d="M29.9608 28.5004C31.4758 28.4676 32.9939 28.4935 34.5097 28.4874C34.7146 28.4646 34.9089 28.6428 34.8929 28.8515C34.8967 29.3855 34.9005 29.921 34.8914 30.4549C34.8944 30.6537 34.7009 30.8106 34.5082 30.7901C33.0351 30.7924 31.5611 30.7924 30.0887 30.7901C29.8968 30.8091 29.7079 30.6507 29.7117 30.4557C29.7033 29.9194 29.7056 29.3839 29.7102 28.8477C29.7002 28.6915 29.8092 28.5392 29.9608 28.5004Z" fill="white"/>
</svg>
