<svg width="60" height="60" viewBox="0 0 60 60" fill="none" xmlns="http://www.w3.org/2000/svg">
<path d="M58.1195 46.5307L54.0503 51.2781H22.1291C21.5452 51.2781 20.9905 51.5333 20.6105 51.9766L15.4476 58H1.73535L1.73535 2L58.1195 2V46.5307Z" fill="white" fill-opacity="0.05" stroke="#9B9B9B" stroke-width="2"/>
<path opacity="0.38" d="M28.1138 59.6549C27.9238 59.8741 27.6481 60 27.3581 60H19.3869C18.539 60 18.0759 59.0111 18.6186 58.3598L21.7533 54.5982C21.9433 54.3702 22.2247 54.2384 22.5215 54.2384H30.6181C31.4751 54.2384 31.9351 55.2458 31.3738 55.8933L28.1138 59.6549Z" fill="#D9D9D9"/>
<path d="M24.0808 12.9772C25.1046 11.8804 26.5679 11.2184 28.0662 11.1544C29.7625 11.0547 31.4962 11.712 32.6601 12.9597C33.271 13.579 33.6602 14.3658 34.0975 15.1078C35.8037 18.0632 37.5092 21.0195 39.2162 23.9749C38.9085 24.5165 38.5466 25.0269 38.1635 25.5174C36.2668 22.2336 34.3709 18.9483 32.4742 15.6646C32.1612 15.1283 31.8763 14.5631 31.4368 14.1152C30.1457 12.7122 27.8681 12.4349 26.238 13.3916C25.5929 13.761 25.0627 14.3156 24.6925 14.9577C21.2252 20.9616 17.7593 26.967 14.2928 32.9708C13.9599 33.5513 13.5844 34.1225 13.4275 34.7822C12.8447 36.8716 14.18 39.2634 16.2565 39.8773C16.9184 40.0982 17.6238 40.0792 18.3124 40.0746C23.6238 40.0754 28.9345 40.0731 34.246 40.0754C34.572 40.6749 34.9597 41.24 35.4015 41.7595C29.4753 41.7595 23.5484 41.7618 17.6222 41.7588C16.4675 41.7656 15.3074 41.4518 14.3377 40.8188C13.0466 39.9863 12.1165 38.6296 11.7639 37.1382C11.4165 35.6925 11.6709 34.1271 12.4212 32.8474C15.9594 26.7133 19.5022 20.5815 23.0419 14.4481C23.3344 13.9225 23.6627 13.4122 24.0808 12.9772Z" fill="white"/>
<path d="M26.7392 14.3369C27.8765 13.6544 29.4479 13.7672 30.4496 14.6485C30.8304 14.9646 31.0947 15.3896 31.3316 15.8177C33.3692 19.3483 35.4076 22.8781 37.446 26.4079C35.9987 28.1599 34.4791 29.9301 33.6686 32.0858C32.8109 34.294 32.8833 36.813 33.7471 39.0075C28.3739 39.0083 23.0015 39.0075 17.6291 39.0083C17.1241 39.0113 16.6152 38.9161 16.1597 38.6929C14.9021 38.0911 14.1374 36.5959 14.4207 35.2248C14.4916 34.8592 14.634 34.5103 14.8199 34.1896C18.4091 27.9732 21.9983 21.7576 25.586 15.5405C25.8617 15.0514 26.2533 14.6226 26.7392 14.3369ZM27.8506 20.6348C26.8543 20.8527 26.0407 21.7896 26.0651 22.8255C26.1443 24.8829 26.2449 26.9396 26.3302 28.997C26.3386 29.3542 26.4026 29.7145 26.5701 30.0337C26.9106 30.7269 27.667 31.1953 28.4424 31.1618C29.2301 31.1458 29.9583 30.6126 30.2515 29.8882C30.4191 29.5119 30.426 29.0937 30.4404 28.6893C30.5235 26.7857 30.6072 24.8814 30.691 22.9779C30.7124 22.5757 30.6354 22.1651 30.4435 21.8094C29.972 20.8946 28.85 20.3865 27.8506 20.6348ZM27.8635 31.855C27.3067 31.9982 26.8207 32.3889 26.5602 32.9016C26.1146 33.7326 26.3553 34.8493 27.1018 35.4259C27.8239 36.0277 28.9635 36.02 29.6772 35.4076C30.4122 34.8241 30.64 33.7113 30.1891 32.8871C29.7739 32.0606 28.757 31.6059 27.8635 31.855Z" fill="white"/>
<path d="M40.8096 20.9404C40.9017 20.8604 41.0244 20.8939 41.1051 20.9731C42.2134 21.8674 43.2471 22.8942 43.9425 24.1495C44.8215 25.7087 45.143 27.5239 45.1339 29.2987C45.1339 30.2966 45.0272 31.2906 44.8794 32.2763C44.8025 32.4583 45.0318 32.6427 45.1856 32.504C46.1226 31.916 46.6908 30.8838 46.9528 29.8319C46.9932 29.6796 47.0366 29.4412 47.2522 29.4891C47.3954 29.5882 47.4799 29.7481 47.5851 29.8845C48.4313 31.0606 49.0712 32.4096 49.2928 33.85C49.5541 35.4778 49.2548 37.1551 48.6233 38.6656C48.0474 40.0123 47.0511 41.1571 45.8506 41.9874C46.4059 40.9606 46.7098 39.7647 46.5255 38.5985C46.3793 37.5009 45.8362 36.5084 45.21 35.6134C44.4613 34.5363 43.6066 33.5042 43.1351 32.2641C42.9279 31.7263 42.7931 31.1596 42.7451 30.5853C42.7261 30.3697 42.7032 30.1351 42.5501 29.9675C42.2934 29.6506 41.7602 29.6156 41.4776 29.9157C40.0821 31.4986 39.1307 33.5354 39.0904 35.6674C39.0073 35.477 38.9159 35.2721 38.7255 35.1662C38.3728 34.9362 37.8404 35.0862 37.6751 35.477C37.292 36.401 36.9431 37.3524 36.8106 38.3487C36.694 39.2064 36.774 40.0953 37.0886 40.905C37.3148 41.5113 37.666 42.0605 38.0552 42.5739C37.036 41.9973 36.1738 41.1594 35.5446 40.1738C34.4401 38.4881 33.9518 36.4116 34.1857 34.4106C34.3578 32.9161 34.9908 31.5145 35.8097 30.2669C36.9865 28.4555 38.5404 26.9275 39.7523 25.142C40.4721 24.0695 41.0373 22.7776 40.8164 21.4606C40.8073 21.2892 40.69 21.0935 40.8096 20.9404Z" fill="white"/>
<path d="M27.9335 21.7195C28.6785 21.4072 29.6466 21.9991 29.626 22.8255C29.5445 24.8829 29.4463 26.9388 29.3594 28.9962C29.3571 29.3329 29.233 29.6833 28.9588 29.8927C28.6282 30.1647 28.1102 30.1593 27.7857 29.8798C27.5206 29.6696 27.3995 29.3283 27.398 28.9977C27.3096 26.9639 27.219 24.9309 27.1314 22.8971C27.088 22.3784 27.4567 21.8924 27.9335 21.7195Z" fill="white"/>
<path d="M40.5235 33.5983C40.8008 32.7604 41.2373 31.982 41.7552 31.2705C41.9883 32.6599 42.6792 33.9182 43.4958 35.0479C44.2247 36.0922 45.0938 37.1037 45.3993 38.3705C45.6926 39.5169 45.3886 40.7501 44.7518 41.7266C44.1287 42.7054 43.0029 43.2828 41.8588 43.3506C40.9775 43.4664 40.0985 43.097 39.4586 42.5028C38.6863 41.7921 38.0746 40.859 37.8842 39.8147C37.6968 38.7475 37.9931 37.675 38.3488 36.6757C38.5766 37.0451 38.7373 37.5052 39.1235 37.7405C39.6171 38.0163 40.279 37.5532 40.1891 36.9941C40.0787 35.8553 40.1541 34.6868 40.5235 33.5983Z" fill="white"/>
<path d="M28.0207 32.9251C28.5067 32.7195 29.1191 32.9914 29.2912 33.4903C29.4984 33.9946 29.1846 34.6222 28.6605 34.7654C28.1593 34.9322 27.5713 34.6078 27.441 34.0974C27.2978 33.632 27.5659 33.095 28.0207 32.9251Z" fill="white"/>
</svg>
