<svg width="60" height="60" viewBox="0 0 60 60" fill="none" xmlns="http://www.w3.org/2000/svg">
<path d="M58.1195 46.5307L54.0503 51.2781H22.1291C21.5452 51.2781 20.9905 51.5333 20.6105 51.9766L15.4476 58H1.73535L1.73535 2L58.1195 2V46.5307Z" fill="white" fill-opacity="0.05" stroke="#9B9B9B" stroke-width="2"/>
<path opacity="0.38" d="M28.1143 59.6549C27.9243 59.8741 27.6486 60 27.3586 60H19.3873C18.5395 60 18.0764 59.0111 18.6191 58.3598L21.7538 54.5982C21.9438 54.3702 22.2252 54.2384 22.522 54.2384H30.6186C31.4756 54.2384 31.9355 55.2458 31.3743 55.8933L28.1143 59.6549Z" fill="#D9D9D9"/>
<path d="M32.0456 10.269C32.2537 10.2387 32.4653 10.2514 32.6749 10.25C36.5167 10.25 40.3586 10.25 44.1998 10.25C44.4079 10.2514 44.6167 10.2394 44.8235 10.2676C45.3424 10.3527 45.7565 10.8448 45.7488 11.3708C45.7509 14.3731 45.7509 17.3755 45.7488 20.3778C45.7544 20.7941 45.4999 21.1906 45.1321 21.3784C44.8467 21.5337 44.512 21.4972 44.1998 21.5C40.2152 21.4993 36.2306 21.5014 32.2467 21.4986C31.6504 21.5098 31.1097 20.9741 31.1266 20.3764C31.1245 17.3748 31.1245 14.3731 31.1266 11.3722C31.1153 10.8455 31.5267 10.3548 32.0456 10.269ZM36.7499 19.8125C36.4393 19.8125 36.1875 20.0649 36.1875 20.3755C36.1875 20.6859 36.4403 20.9377 36.7507 20.9377C37.0609 20.9377 37.3127 20.6856 37.3127 20.3753C37.3127 20.0647 37.0606 19.8125 36.7499 19.8125ZM38.4377 19.8125C38.127 19.8125 37.8752 20.0641 37.8752 20.3747C37.8752 20.6854 38.127 20.9375 38.4377 20.9375C38.7483 20.9375 39.0002 20.6854 39.0002 20.3747C39.0002 20.0641 38.7483 19.8125 38.4377 19.8125ZM40.1249 19.8125C39.8143 19.8125 39.5627 20.0643 39.5627 20.375C39.5627 20.6857 39.8143 20.9375 40.1249 20.9375C40.4356 20.9375 40.6877 20.6857 40.6877 20.375C40.6877 20.0643 40.4356 19.8125 40.1249 19.8125Z" fill="white"/>
<path d="M17.4248 14.2668C17.7827 13.8055 18.393 13.5531 18.9717 13.6438C19.4491 13.7028 19.8868 13.9866 20.1502 14.3864C20.2807 14.5847 20.4839 14.7419 20.7213 14.7433C23.4399 14.7597 26.1596 14.7458 28.8788 14.7489C29.1877 14.7493 29.4377 15.0036 29.4377 15.3124C29.4377 15.6212 29.1878 15.8755 28.8791 15.8759C26.1592 15.8798 23.4384 15.8633 20.7191 15.8829C20.4824 15.8847 20.28 16.0412 20.1497 16.2388C20.0263 16.426 19.8645 16.5879 19.6773 16.7113C19.4794 16.8416 19.3224 17.0441 19.3206 17.281C19.3013 19.8131 19.3175 22.3462 19.3138 24.8788C19.3134 25.1875 19.0602 25.4373 18.7515 25.4373C18.442 25.4373 18.1879 25.1863 18.1881 24.8768C18.1893 22.346 18.1828 19.8152 18.1912 17.2845C18.192 17.0574 18.0513 16.8584 17.8599 16.7362C17.5967 16.568 17.3735 16.3397 17.2385 16.0541C16.9502 15.4881 17.0254 14.7611 17.4248 14.2668Z" fill="white"/>
<path d="M37.8746 23.1244C37.8746 22.8485 38.0983 22.625 38.3742 22.625C38.4163 22.625 38.4584 22.625 38.5004 22.625C38.7763 22.625 39.0001 22.8485 39 23.1244C38.9999 23.3541 38.9997 23.5838 38.9996 23.8135C38.9996 24.0893 39.2231 24.3127 39.4988 24.3128C40.1034 24.3129 40.708 24.3127 41.3126 24.3126C41.5883 24.3125 41.812 24.5358 41.8122 24.8116C41.8122 24.8535 41.8122 24.8955 41.8123 24.9375C41.8124 25.2136 41.5885 25.4375 41.3123 25.4375C39.3956 25.4375 37.4789 25.4375 35.5622 25.4369C35.2861 25.4369 35.0622 25.213 35.0621 24.937C35.0621 24.895 35.062 24.8531 35.062 24.8112C35.0619 24.5356 35.2854 24.3123 35.561 24.3122C36.1657 24.3121 36.7705 24.3123 37.3754 24.3124C37.6513 24.3125 37.8751 24.089 37.875 23.8131C37.8749 23.5835 37.8747 23.354 37.8746 23.1244Z" fill="white"/>
<path d="M33.3746 24.8127C33.3747 24.5365 33.5987 24.3126 33.8748 24.3125C33.9171 24.3125 33.9594 24.3125 34.0017 24.3125C34.2771 24.3126 34.4998 24.5361 34.4998 24.8115C34.4998 24.8536 34.4998 24.8956 34.4998 24.9377C34.4998 25.2138 34.276 25.4377 33.9998 25.4377C33.9578 25.4377 33.9159 25.4377 33.8739 25.4377C33.5981 25.4377 33.3744 25.2144 33.3745 24.9386C33.3745 24.8966 33.3746 24.8547 33.3746 24.8127Z" fill="white"/>
<path d="M42.375 24.8106C42.3751 24.5352 42.5986 24.3125 42.874 24.3125C42.9161 24.3125 42.9581 24.3125 43.0002 24.3125C43.2763 24.3125 43.5002 24.5364 43.5002 24.8125C43.5002 24.8542 43.5002 24.8958 43.5002 24.9375C43.5002 25.2136 43.2763 25.4375 43.0002 25.4375C42.9585 25.4375 42.9168 25.4375 42.8752 25.4375C42.599 25.4375 42.3751 25.2136 42.375 24.9375C42.375 24.8952 42.375 24.8529 42.375 24.8106Z" fill="white"/>
<path d="M40.6864 27.1196C40.6869 26.8114 40.941 26.5619 41.2492 26.5621C41.5579 26.5622 41.8127 26.8121 41.8131 27.1208C41.8169 29.652 41.8018 32.1842 41.8195 34.7148C41.8211 34.9529 41.9795 35.1563 42.1786 35.2868C42.4989 35.4969 42.7453 35.8197 42.8582 36.186C43.027 36.7084 42.9152 37.3096 42.5706 37.7371C42.2135 38.1955 41.6053 38.4416 41.0294 38.3572C40.5551 38.2979 40.1151 38.0181 39.8533 37.6211C39.7217 37.4216 39.5183 37.2614 39.2794 37.2592C36.7473 37.2363 34.2142 37.2549 31.6821 37.2511C31.3743 37.2506 31.125 36.9963 31.125 36.6884C31.125 36.3798 31.375 36.1241 31.6837 36.1237C34.2158 36.1201 36.7484 36.1368 39.28 36.117C39.5176 36.1151 39.7205 35.9571 39.851 35.7586C39.9731 35.5728 40.1335 35.4119 40.3191 35.2897C40.5179 35.1587 40.6767 34.9557 40.6788 34.7177C40.7007 32.1853 40.6825 29.6525 40.6864 27.1196Z" fill="white"/>
<path d="M15.1732 27.7058C15.3561 27.679 15.5424 27.6875 15.7273 27.6868C19.7358 27.6889 23.745 27.6854 27.7536 27.6889C28.3533 27.6734 28.8891 28.2176 28.8736 28.8153C28.8757 31.8162 28.8764 34.8172 28.8736 37.8174C28.8863 38.4136 28.3498 38.9487 27.7543 38.9361C23.6283 38.9382 19.5017 38.9382 15.3757 38.9361C14.9447 38.9431 14.5327 38.6682 14.352 38.2808C14.2261 38.0255 14.2507 37.7351 14.25 37.4602C14.2514 34.5781 14.2479 31.696 14.2514 28.8139C14.2381 28.2851 14.6522 27.7908 15.1732 27.7058ZM19.8116 37.2497C19.5358 37.2496 19.3125 37.4733 19.3125 37.749C19.3125 37.791 19.3125 37.833 19.3125 37.875C19.3125 38.1511 19.5364 38.375 19.8125 38.3749C19.8545 38.3749 19.8965 38.3749 19.9385 38.3748C20.2143 38.3747 20.4375 38.151 20.4375 37.8752C20.4375 37.8335 20.4375 37.7917 20.4375 37.75C20.4375 37.4738 20.2137 37.2499 19.9375 37.2497C19.8956 37.2497 19.8536 37.2497 19.8116 37.2497ZM21.4989 37.2497C21.2235 37.2499 20.9999 37.4727 20.9999 37.7481C20.9999 37.7904 20.9999 37.8327 20.9999 37.875C20.9999 38.1511 21.2239 38.375 21.5 38.375C21.5417 38.375 21.5834 38.375 21.625 38.375C21.9012 38.375 22.125 38.1511 22.125 37.875C22.125 37.833 22.125 37.791 22.125 37.749C22.125 37.4733 21.9018 37.2496 21.626 37.2497C21.5836 37.2497 21.5412 37.2497 21.4989 37.2497ZM23.1875 37.25C22.9114 37.25 22.6875 37.4738 22.6875 37.75C22.6875 37.7916 22.6875 37.8333 22.6875 37.875C22.6875 38.1511 22.9114 38.375 23.1875 38.3749C23.2295 38.3749 23.2715 38.3749 23.3135 38.3748C23.5893 38.3747 23.8125 38.151 23.8125 37.8752C23.8125 37.8335 23.8125 37.7917 23.8125 37.75C23.8125 37.4738 23.5887 37.25 23.3125 37.25C23.2709 37.25 23.2292 37.25 23.1875 37.25Z" fill="white"/>
<path d="M21 40.5619C20.9999 40.286 21.2237 40.0625 21.4996 40.0625C21.5416 40.0625 21.5837 40.0625 21.6258 40.0625C21.9017 40.0625 22.1254 40.286 22.1254 40.5619C22.1253 40.7915 22.1251 41.021 22.125 41.2506C22.1249 41.5265 22.3487 41.75 22.6246 41.7499C23.2292 41.7498 23.8337 41.7496 24.4381 41.7497C24.714 41.7498 24.9377 41.9736 24.9377 42.2496C24.9377 42.2914 24.9377 42.3332 24.9377 42.375C24.9377 42.6511 24.7138 42.875 24.4377 42.875C22.5204 42.875 20.6032 42.875 18.6865 42.875C18.4111 42.875 18.1876 42.6523 18.1875 42.3769C18.1875 42.3346 18.1875 42.2923 18.1875 42.25C18.1876 41.9741 18.4111 41.7504 18.6869 41.7502C19.2916 41.7498 19.8962 41.7503 20.5012 41.7502C20.7769 41.7502 21.0004 41.5268 21.0004 41.251C21.0003 41.0213 21.0001 40.7916 21 40.5619Z" fill="white"/>
<path d="M16.5 42.2489C16.5 41.9731 16.7233 41.7494 16.9991 41.7495C17.0414 41.7495 17.0838 41.7496 17.1262 41.7496C17.4016 41.7497 17.6251 41.9725 17.6252 42.248C17.6252 42.2902 17.6252 42.3325 17.6252 42.3748C17.6251 42.651 17.4011 42.8749 17.125 42.8748C17.083 42.8747 17.041 42.8747 16.9991 42.8747C16.7233 42.8745 16.5 42.6508 16.5 42.3751C16.5 42.333 16.5 42.2909 16.5 42.2489Z" fill="white"/>
<path d="M25.5 42.2498C25.5 41.9737 25.7239 41.7497 26 41.7496C26.042 41.7496 26.084 41.7495 26.1259 41.7495C26.4017 41.7494 26.625 41.9731 26.625 42.2489C26.625 42.2909 26.625 42.3328 26.625 42.3748C26.625 42.651 26.4011 42.8748 26.125 42.8748C26.0833 42.8748 26.0417 42.8748 26 42.8748C25.7239 42.8748 25.5 42.651 25.5 42.3748C25.5 42.3332 25.5 42.2915 25.5 42.2498Z" fill="white"/>
</svg>
