<svg width="60" height="60" viewBox="0 0 60 60" fill="none" xmlns="http://www.w3.org/2000/svg">
<path d="M58.3841 46.5307L54.3149 51.2781H22.3937C21.8099 51.2781 21.2552 51.5333 20.8752 51.9766L15.7123 58H2L2 2L58.3841 2V46.5307Z" fill="white" fill-opacity="0.05" stroke="#9B9B9B" stroke-width="2"/>
<path opacity="0.38" d="M28.1138 59.6549C27.9238 59.8741 27.6481 60 27.3581 60H19.3869C18.539 60 18.0759 59.0111 18.6186 58.3598L21.7533 54.5982C21.9433 54.3702 22.2247 54.2384 22.5215 54.2384H30.6181C31.4751 54.2384 31.9351 55.2458 31.3738 55.8933L28.1138 59.6549Z" fill="#D9D9D9"/>
<path d="M25.0483 10.7865C25.1508 10.3044 25.6168 9.94327 26.1069 9.94888C27.1727 9.94007 28.2386 9.94808 29.3044 9.94487C29.5094 9.93607 29.7096 9.98491 29.9018 10.053C29.9026 12.4529 29.9026 14.8529 29.9018 17.2528C27.9495 16.8036 25.8539 16.9781 24.0161 17.7821C21.8307 18.7158 20.0274 20.504 19.072 22.6805C18.1824 24.6768 18.0262 26.9855 18.626 29.0859C19.2762 31.3978 20.845 33.4294 22.9094 34.653C24.9818 35.9086 27.5443 36.2978 29.9018 35.7501C29.9026 38.1492 29.9026 40.5483 29.9018 42.9475C29.7088 43.0147 29.5078 43.0644 29.302 43.0556C28.237 43.0524 27.1727 43.0596 26.1077 43.0516C25.5976 43.058 25.1155 42.6656 25.0379 42.1579C24.997 41.7895 25.0058 41.414 24.9057 41.0536C24.6134 39.814 23.6013 38.7986 22.3825 38.4511C21.3006 38.118 20.0658 38.3278 19.1681 39.0228C18.8855 39.223 18.6717 39.5321 18.3281 39.637C17.9493 39.7652 17.5089 39.6579 17.2278 39.3744C16.5007 38.6585 15.7856 37.9298 15.0601 37.2123C14.8543 37.0161 14.6493 36.7927 14.5941 36.5044C14.4988 36.1176 14.6525 35.7092 14.9352 35.4402C15.7408 34.6234 16.118 33.4126 15.9017 32.2835C15.6615 30.8397 14.4956 29.5832 13.0438 29.3166C12.6161 29.2029 12.1341 29.3254 11.7409 29.0859C11.3966 28.8922 11.194 28.4966 11.2068 28.105C11.2052 27.0343 11.2052 25.9637 11.2068 24.8931C11.194 24.5039 11.3942 24.1115 11.7353 23.9169C12.0828 23.6943 12.512 23.784 12.898 23.7095C13.9038 23.5598 14.8207 22.9472 15.3628 22.0887C15.977 21.1406 16.1396 19.901 15.7424 18.8376C15.559 18.3218 15.2387 17.867 14.8607 17.4754C14.4724 17.0798 14.4724 16.3864 14.8639 15.9924C15.6479 15.198 16.4391 14.41 17.231 13.6229C17.637 13.2009 18.3738 13.2129 18.7733 13.6381C19.5853 14.4557 20.7937 14.8585 21.9316 14.6503C23.3378 14.4317 24.5798 13.3394 24.9057 11.9436C25.0138 11.5665 24.9898 11.1701 25.0483 10.7865Z" fill="white"/>
<path d="M41.2546 12.4249C41.6886 12.0317 42.342 11.9092 42.8906 12.111C43.512 12.3256 43.9652 12.9462 43.9732 13.6044C44.0036 14.2971 43.5424 14.949 42.9018 15.1948C42.8994 17.0486 42.901 18.9016 42.9018 20.7554C44.2174 20.7554 45.5331 20.757 46.8488 20.7546C47.0026 20.4207 47.25 20.122 47.5855 19.9586C48.098 19.6952 48.7587 19.7552 49.2095 20.1188C49.7212 20.508 49.931 21.2399 49.6996 21.8413C49.4762 22.4803 48.7875 22.9159 48.1133 22.8294C47.5559 22.7822 47.069 22.3922 46.8512 21.8845C45.5347 21.8797 44.2182 21.8837 42.9018 21.8829C42.8986 23.5838 42.9034 25.2854 42.8994 26.9863C42.9242 27.2938 42.6647 27.5901 42.3524 27.5853C40.0854 27.5949 37.8192 27.5861 35.5522 27.5893C35.5506 27.2137 35.5514 26.8382 35.5522 26.4634C37.6262 26.4626 39.7002 26.4634 41.7743 26.4626C41.7703 22.7029 41.7863 18.9433 41.7671 15.1836C41.2305 14.985 40.8149 14.4925 40.7268 13.9256C40.6251 13.3778 40.8341 12.7893 41.2546 12.4249Z" fill="white"/>
<path d="M32.7557 14.5976C33.0376 13.9738 33.7407 13.5734 34.4222 13.6655C35.0332 13.7231 35.5625 14.1628 35.7827 14.7273C36.6411 14.7353 37.4996 14.7193 38.358 14.7345C38.6719 14.7457 38.9009 15.0604 38.8689 15.3631C38.8673 17.928 38.8729 20.4945 38.8665 23.0595C38.8769 23.3734 38.587 23.6464 38.2747 23.6224C37.3666 23.6248 36.4593 23.6224 35.5521 23.6224C35.5513 23.2476 35.5513 22.8721 35.5513 22.4973C36.2824 22.4957 37.0127 22.4973 37.7438 22.4957C37.7438 20.2807 37.7438 18.0658 37.7438 15.85C37.0904 15.85 36.4369 15.8484 35.7835 15.8508C35.6057 16.2848 35.2646 16.6596 34.8169 16.819C34.2188 17.0544 33.4949 16.8886 33.056 16.4194C32.594 15.9493 32.4699 15.191 32.7557 14.5976Z" fill="white"/>
<path d="M24.4451 21.1886C24.6901 21.0973 24.956 21.1206 25.2114 21.1182C27.8812 21.1214 30.551 21.1166 33.22 21.1206C33.8447 21.0901 34.4204 21.6299 34.4228 22.2561C34.43 25.0596 34.4236 27.8631 34.426 30.6667C34.4404 31.1223 34.1722 31.5756 33.755 31.7646C33.4675 31.9119 33.1368 31.8799 32.8253 31.8823C30.2099 31.8815 27.5946 31.8799 24.9792 31.8831C24.2897 31.9607 23.6219 31.3666 23.6635 30.6643C23.6635 28.0225 23.6643 25.3807 23.6635 22.7381C23.6683 22.4531 23.6331 22.1552 23.7396 21.8829C23.8557 21.5618 24.1232 21.3015 24.4451 21.1886Z" fill="white"/>
<path d="M35.5521 29.6185C37.2049 29.6169 38.8577 29.6193 40.5113 29.6169C40.8524 29.5633 41.2176 29.8219 41.2024 30.1847C41.2088 31.3402 41.2016 32.4973 41.2056 33.6537C42.5213 33.6537 43.837 33.6553 45.1534 33.6529C45.3024 33.3341 45.5322 33.0459 45.8485 32.8809C46.3995 32.5726 47.1378 32.6583 47.5982 33.0923C48.0491 33.4911 48.218 34.1694 48.0066 34.7331C47.78 35.3962 47.0513 35.8406 46.3578 35.7229C45.8149 35.658 45.3672 35.2632 45.1438 34.7771C43.8305 34.7852 42.5181 34.7763 41.2048 34.7812C41.2064 35.9038 41.2016 37.0257 41.2064 38.1476C41.7629 38.3839 42.1681 38.946 42.1633 39.5578C42.1889 40.3354 41.5267 41.0489 40.7507 41.0873C39.982 41.161 39.2317 40.5572 39.1356 39.7924C39.0219 39.1078 39.4423 38.4087 40.0781 38.1484C40.0813 35.6804 40.0773 33.2132 40.0797 30.7452C38.5702 30.7428 37.0607 30.746 35.5513 30.7444C35.5513 30.3688 35.5513 29.9933 35.5521 29.6185Z" fill="white"/>
</svg>
