<svg width="126" height="56" viewBox="0 0 126 56" fill="none" xmlns="http://www.w3.org/2000/svg">
<path d="M27.1031 5.57839C28.48 4.98482 29.8689 4.4091 31.3128 4C31.9089 4.74382 32.414 5.55905 33.0429 6.2746C33.776 6.44866 34.5554 6.43378 35.2707 6.71494C36.1051 6.17939 36.8949 5.57541 37.7249 5.03093C38.9349 5.89228 40.0824 6.83544 41.1851 7.82919C40.8438 8.78723 40.37 9.68873 40.0079 10.6378C40.3282 11.2865 40.5771 11.9663 40.7783 12.661C41.6932 13.0597 42.5873 13.5045 43.4948 13.9181C43.3458 15.4013 43.1387 16.8815 42.784 18.3304C41.799 18.4703 40.8125 18.5997 39.8186 18.6652C39.3939 19.2557 38.9618 19.8478 38.4298 20.3492C38.4939 21.3637 38.6146 22.3753 38.6459 23.3914C37.2853 23.9879 35.9025 24.5384 34.4779 24.9623C33.8893 24.1873 33.3215 23.3958 32.7389 22.6163C31.973 22.591 31.2264 22.4185 30.4724 22.3024C29.6245 22.7606 28.8854 23.4048 28.0732 23.9269C26.8543 23.0522 25.6845 22.112 24.5863 21.09C24.9722 20.2361 25.3373 19.3733 25.7054 18.5119C25.3328 17.7874 25.0452 17.0243 24.8381 16.2373C24.0021 15.8148 23.1498 15.4295 22.2959 15.0442C22.43 13.5462 22.658 12.0556 23.0231 10.5947C23.944 10.4935 24.8664 10.4028 25.7873 10.2927C26.2046 9.55336 26.8438 8.98062 27.349 8.31564C27.2805 7.40223 27.1866 6.49031 27.1031 5.57839ZM32.0206 9.43137C30.2906 9.74973 28.7438 10.9755 28.1284 12.6328C27.2313 14.7661 28.0866 17.4334 30.0164 18.6964C31.584 19.7883 33.7984 19.8701 35.445 18.9002C37.5357 17.7488 38.5654 15.0249 37.722 12.7875C36.9516 10.4935 34.4108 8.97913 32.0206 9.43137Z" fill="white"/>
<path d="M11.0437 13.57C12.5339 13.4912 14.0285 13.5016 15.5201 13.5611C15.8107 14.5414 16.067 15.5307 16.3785 16.5051C17.0729 16.7104 17.7271 17.0213 18.3797 17.3323C19.2589 16.825 20.1441 16.3251 21.0441 15.855C22.1513 16.8473 23.2078 17.8931 24.2003 19.0014C23.7219 19.9118 23.1989 20.7955 22.7057 21.697C22.9918 22.3456 23.2674 23.0002 23.5044 23.6696C24.4938 23.9731 25.5116 24.1828 26.4847 24.5429C26.5547 26.0245 26.5726 27.5092 26.4787 28.9894C25.4982 29.3197 24.4461 29.4729 23.5059 29.8924C23.2093 30.5083 23.0156 31.1688 22.7086 31.7802C23.1795 32.6907 23.713 33.5684 24.1928 34.4743C23.2227 35.6109 22.1588 36.6641 21.0337 37.649C20.1366 37.1714 19.2574 36.6627 18.3678 36.1747C17.7151 36.496 17.0431 36.7742 16.3591 37.0182C16.0834 37.9807 15.7958 38.9402 15.5365 39.9087C14.0389 40.0262 12.5339 40.0336 11.0363 39.9117C10.7516 38.9774 10.4998 38.0343 10.2375 37.0941C9.51631 36.8441 8.80849 36.557 8.11855 36.2327C7.24234 36.676 6.40189 37.1833 5.54058 37.6519C4.40509 36.6716 3.36198 35.5945 2.34867 34.4907C2.8285 33.6442 3.30088 32.7933 3.77773 31.9439C3.40519 31.2521 3.10269 30.5247 2.86576 29.7749C1.94782 29.5131 1.03138 29.2483 0.105994 29.0132C-0.0355706 27.5122 -0.0325902 25.9978 0.0985433 24.4982C1.00456 24.2096 1.94931 24.0356 2.83893 23.7008C3.1474 22.9838 3.38135 22.234 3.77475 21.5542C3.30386 20.7062 2.83148 19.8583 2.35762 19.0118C3.26363 17.9943 4.22627 17.0288 5.22616 16.1035C5.35133 16.0142 5.49439 15.8074 5.66724 15.9294C6.49428 16.3564 7.29598 16.8324 8.1096 17.2861C8.78762 16.9157 9.51929 16.6658 10.2435 16.4055C10.4924 15.4563 10.7576 14.5102 11.0437 13.57ZM11.4505 19.6946C9.22275 20.2391 7.29747 21.8889 6.44808 24.0177C5.75069 25.6898 5.73281 27.6252 6.38252 29.3137C7.03968 31.0781 8.42403 32.5464 10.1303 33.3408C11.4535 33.9864 12.975 34.1009 14.4174 33.9061C16.7197 33.5356 18.7702 31.9617 19.7566 29.8582C20.4108 28.5595 20.5613 27.0599 20.3751 25.6333C20.083 23.6949 18.9579 21.8978 17.3366 20.791C15.6557 19.5979 13.4488 19.1978 11.4505 19.6946Z" fill="white"/>
<path d="M95.9676 24.5787C97.2745 22.8843 99.4576 22.1062 101.541 22.0259C103.305 21.9798 105.178 21.9738 106.767 22.853C107.889 23.4407 108.711 24.4969 109.109 25.6885C107.437 25.8194 105.774 26.0351 104.107 26.1972C103.919 25.7048 103.752 25.1381 103.271 24.8494C102.292 24.2812 100.891 24.6694 100.359 25.6721C99.8599 26.6004 99.7929 27.6834 99.6662 28.7084C100.325 28.2487 100.998 27.7756 101.781 27.548C102.956 27.2014 104.226 27.1999 105.414 27.487C106.932 27.8515 108.299 28.8616 109.029 30.2481C111.83 27.5227 114.587 24.7542 117.375 22.017C118.843 22.017 120.309 22.0155 121.777 22.0185C121.788 25.1038 121.771 28.1892 121.786 31.2746C122.546 31.288 123.307 31.279 124.067 31.285C124.075 32.3784 124.075 33.4733 124.069 34.5667C123.306 34.5697 122.545 34.5623 121.783 34.5756C121.774 35.5084 121.785 36.4426 121.777 37.3769C120.317 37.3784 118.856 37.3798 117.398 37.3769C117.39 36.4426 117.4 35.5084 117.392 34.5742C114.59 34.5652 111.789 34.5623 108.989 34.5756C108.474 35.5173 107.703 36.3251 106.731 36.7982C105.277 37.5375 103.6 37.6744 101.994 37.6357C100.387 37.5688 98.7021 37.3412 97.3415 36.4173C96.1464 35.5872 95.2747 34.3198 94.8902 32.9199C94.6026 31.9738 94.5758 30.977 94.5103 29.9982C94.5415 28.1193 94.7889 26.1169 95.9676 24.5787ZM112.616 31.2701C114.209 31.2909 115.803 31.2924 117.396 31.2701C117.387 29.7066 117.406 28.1431 117.386 26.5796C115.781 28.1282 114.195 29.6962 112.616 31.2701ZM101.766 29.9372C101.326 30.0175 100.903 30.2109 100.575 30.5174C99.7228 31.2537 99.6707 32.5733 100.049 33.5626C100.687 35.0799 102.95 35.5069 104.084 34.3079C104.836 33.451 104.858 32.13 104.406 31.1243C103.937 30.1737 102.779 29.7259 101.766 29.9372Z" fill="white"/>
<path d="M43.0418 22.292C45.1027 22.2741 47.1636 22.2816 49.2245 22.2875C51.26 26.7965 53.2911 31.3056 55.3043 35.8235C55.3654 31.3145 55.3102 26.8025 55.3326 22.292C57.2117 22.2711 59.0923 22.286 60.9713 22.2845C60.9713 27.3142 60.9758 32.3454 60.9698 37.3766C57.3473 37.3737 53.7262 37.3885 50.1051 37.3692C49.8295 36.548 49.518 35.7402 49.2215 34.928C47.101 34.928 44.982 34.9086 42.863 34.928C42.5858 35.7462 42.3087 36.5644 42.0062 37.3751C40.0928 37.3796 38.1809 37.3811 36.2676 37.3737C38.5073 32.338 40.7902 27.3217 43.0418 22.292ZM46.0847 26.2625C45.3843 28.0224 44.7778 29.8179 44.1177 31.5927C45.4231 31.6001 46.727 31.5942 48.0308 31.5972C47.4095 29.809 46.7195 28.0462 46.0847 26.2625Z" fill="white"/>
<path d="M62.4079 22.2844C65.5224 22.2889 68.6383 22.2651 71.7527 22.2978C73.903 22.3335 76.1814 23.058 77.5539 24.7971C79.0962 26.7012 79.2571 29.3121 78.9978 31.6521C80.4313 28.5444 81.8172 25.4159 83.2164 22.2934C85.2818 22.274 87.3501 22.277 89.417 22.2919C91.6626 27.3231 93.95 32.3334 96.1793 37.3721C94.2197 37.3825 92.2602 37.381 90.3021 37.3736C90.0041 36.5598 89.7061 35.7476 89.4155 34.9324C87.298 34.9115 85.1805 34.9264 83.0629 34.9234C82.7664 35.7357 82.4937 36.5554 82.1942 37.3676C80.2793 37.3899 78.3645 37.3751 76.4496 37.3751C76.8043 36.5509 77.1724 35.7327 77.5524 34.919C76.7074 35.761 75.718 36.4974 74.5572 36.835C73.2563 37.207 71.9002 37.384 70.5472 37.3765C67.8351 37.378 65.123 37.3795 62.4109 37.3751C62.405 32.3453 62.4094 27.3156 62.4079 22.2844ZM68.0363 25.7164C68.0333 28.4552 68.0333 31.1939 68.0348 33.9341C69.1747 33.9178 70.3356 34.013 71.4532 33.7467C72.2146 33.5771 72.842 32.9806 73.1147 32.2591C73.4887 31.2058 73.4544 30.0588 73.3948 28.958C73.3203 27.9449 73.0208 26.7697 72.0507 26.2535C70.8318 25.5513 69.3804 25.7373 68.0363 25.7164ZM84.2923 31.5881C85.6022 31.603 86.912 31.5986 88.2219 31.5911C87.5841 29.8059 86.8971 28.0386 86.2698 26.2505C85.5694 28.0148 84.9718 29.8164 84.2923 31.5881Z" fill="white"/>
</svg>
