<svg width="60" height="60" viewBox="0 0 60 60" fill="none" xmlns="http://www.w3.org/2000/svg">
<path d="M58.1195 46.5307L54.0503 51.2781H22.1291C21.5452 51.2781 20.9905 51.5333 20.6105 51.9766L15.4476 58H1.73535L1.73535 2L58.1195 2V46.5307Z" fill="white" fill-opacity="0.05" stroke="#9B9B9B" stroke-width="2"/>
<path opacity="0.38" d="M28.1138 59.6549C27.9238 59.8741 27.6481 60 27.3581 60H19.3869C18.539 60 18.0759 59.0111 18.6186 58.3598L21.7533 54.5982C21.9433 54.3702 22.2247 54.2384 22.5215 54.2384H30.6181C31.4751 54.2384 31.9351 55.2458 31.3738 55.8933L28.1138 59.6549Z" fill="#D9D9D9"/>
<path d="M36.9088 11.0477C37.1404 10.8017 37.471 10.6516 37.8107 10.657C38.2426 10.657 38.676 10.6501 39.1079 10.6608C39.7021 10.6813 40.2185 11.2069 40.2459 11.7972C40.2916 12.3327 39.929 12.8591 39.4233 13.0282C39.0607 13.1546 38.6699 13.0518 38.3005 13.1105C36.7969 14.6065 35.3054 16.1147 33.8041 17.6122C33.5588 17.8605 33.2069 17.9847 32.8611 17.9695C31.4603 17.9656 30.0587 17.9748 28.6587 17.9641C27.136 19.8425 25.6362 21.7392 24.1188 23.6206C23.8773 23.917 23.4927 24.0777 23.1126 24.0632C20.2927 24.0609 17.4728 24.0647 14.6529 24.0609C14.0055 24.0746 13.4182 23.4904 13.438 22.8406C13.4212 22.1909 14.0062 21.6067 14.656 21.6265C17.3022 21.6257 19.9476 21.6211 22.5938 21.6288C24.0343 19.8479 25.4587 18.0532 26.893 16.2678C27.1466 15.9006 27.5039 15.5487 27.9784 15.5373C29.431 15.5228 30.8836 15.5358 32.337 15.5312C32.4642 15.5533 32.5328 15.4299 32.6143 15.3583C34.0432 13.9186 35.4776 12.4851 36.9088 11.0477Z" fill="white"/>
<path d="M42.4732 10.6761C43.1877 10.5214 43.9258 11.146 43.9044 11.8735C43.9235 12.5529 43.2852 13.1532 42.6072 13.0884C41.9864 13.0625 41.4563 12.4966 41.47 11.875C41.4593 11.3022 41.9065 10.7659 42.4732 10.6761Z" fill="white"/>
<path d="M46.1288 10.6762C46.8448 10.5208 47.5844 11.1477 47.5608 11.8759C47.5783 12.5554 46.9393 13.1541 46.2621 13.0886C45.6108 13.0619 45.0669 12.4388 45.1294 11.7906C45.1591 11.2483 45.5925 10.763 46.1288 10.6762Z" fill="white"/>
<path d="M36.5949 17.9636C36.5781 17.3161 37.1609 16.7334 37.8091 16.7517C39.4361 16.7494 41.0631 16.7494 42.6894 16.7517C43.3384 16.7342 43.9188 17.3215 43.9044 17.9682C43.9074 24.8747 43.9051 31.7812 43.9059 38.6877C41.4684 38.6877 39.0309 38.6877 36.5934 38.6877C36.5941 31.7797 36.5919 24.8716 36.5949 17.9636Z" fill="white"/>
<path d="M26.8449 22.8422C26.8266 22.1917 27.4116 21.6067 28.0621 21.6265C29.6892 21.6242 31.3162 21.6235 32.9432 21.6265C33.4109 21.6197 33.8558 21.919 34.0454 22.3425C34.1818 22.6152 34.1544 22.9275 34.1566 23.2223C34.1551 28.3776 34.1566 33.5322 34.1559 38.6875C31.7184 38.6875 29.2809 38.6875 26.8434 38.6875C26.8441 33.4057 26.8419 28.124 26.8449 22.8422Z" fill="white"/>
<path d="M17.0949 28.9331C17.0774 28.2834 17.6631 27.6999 18.3137 27.7205C19.9392 27.7182 21.5647 27.7182 23.1902 27.7205C23.8369 27.7029 24.4165 28.2872 24.4044 28.9324C24.4082 32.1841 24.4051 35.4359 24.4059 38.6877C21.9684 38.6877 19.5309 38.6877 17.0934 38.6877C17.0941 35.4359 17.0919 32.1849 17.0949 28.9331Z" fill="white"/>
<path d="M14.4382 39.9263C14.6614 39.8943 14.8884 39.9081 15.1139 39.9065C25.3712 39.9065 35.6292 39.9065 45.8873 39.9065C46.1867 39.9126 46.5013 39.873 46.7861 39.9903C47.2934 40.1838 47.6332 40.7437 47.5509 41.2845C47.4846 41.871 46.937 42.3547 46.3451 42.3425C35.8067 42.3463 25.2683 42.3425 14.73 42.3448C14.0863 42.3897 13.467 41.8535 13.4404 41.206C13.3863 40.6065 13.8448 40.0208 14.4382 39.9263Z" fill="white"/>
</svg>
