<svg width="60" height="60" viewBox="0 0 60 60" fill="none" xmlns="http://www.w3.org/2000/svg">
<path d="M58.1195 46.5307L54.0503 51.2781H22.1291C21.5452 51.2781 20.9905 51.5333 20.6105 51.9766L15.4476 58H1.73535L1.73535 2L58.1195 2V46.5307Z" fill="white" fill-opacity="0.05" stroke="#9B9B9B" stroke-width="2"/>
<path opacity="0.38" d="M28.1138 59.6549C27.9238 59.8741 27.6481 60 27.3581 60H19.3869C18.539 60 18.0759 59.0111 18.6186 58.3598L21.7533 54.5982C21.9433 54.3702 22.2247 54.2384 22.5215 54.2384H30.6181C31.4751 54.2384 31.9351 55.2458 31.3738 55.8933L28.1138 59.6549Z" fill="#D9D9D9"/>
<path d="M34.7444 11.5334C35.4444 10.6509 36.5491 10.106 37.6763 10.0972C38.6819 10.0739 39.6799 10.4738 40.4025 11.1704C41.3971 10.8183 42.5496 10.9393 43.4363 11.517C44.3092 12.068 44.8998 13.027 45.0147 14.0517C45.9881 14.317 46.7442 15.2323 46.7824 16.2468C46.8433 17.1197 46.3573 17.9667 45.6292 18.4302C45.6203 18.3973 45.6019 18.331 45.593 18.2982C45.2772 18.1451 44.9347 18.0535 44.6155 17.9086C44.5204 17.7739 44.4815 17.6071 44.4104 17.4595C44.5539 17.1265 44.7043 16.7964 44.8506 16.4641C44.1841 15.7949 43.5162 15.1284 42.8484 14.4612C42.5168 14.6082 42.186 14.7558 41.8537 14.9014C41.7054 14.8372 41.5564 14.775 41.406 14.7155C41.2761 14.3785 41.1469 14.0408 41.0163 13.7038C40.0716 13.7031 39.1269 13.7017 38.1822 13.7045C38.0523 14.0415 37.9238 14.3792 37.7925 14.7162C37.6442 14.777 37.4958 14.8386 37.3482 14.9014C37.0118 14.7593 36.6837 14.5972 36.344 14.4639C35.6836 15.1352 35.0123 15.7956 34.3492 16.4641C34.4894 16.7923 34.6466 17.1136 34.7792 17.4451C34.7457 17.6051 34.6596 17.7493 34.6049 17.9024C34.2761 18.033 33.9452 18.1595 33.6144 18.2852C33.598 18.3187 33.5658 18.3857 33.5494 18.4192C32.8939 17.9865 32.4324 17.2489 32.4147 16.4539C32.3668 15.4757 32.993 14.5159 33.9008 14.155C33.8666 13.2178 34.1483 12.2641 34.7444 11.5334ZM37.301 11.0303C36.0733 11.1957 35.0287 12.2238 34.8462 13.4488C34.8148 13.7209 34.7382 14.0422 34.9289 14.2739C35.1313 14.5378 35.5722 14.5371 35.7745 14.2725C35.9119 14.1187 35.8907 13.9007 35.9154 13.7099C35.9906 12.9054 36.6707 12.2095 37.4719 12.1117C37.6838 12.0809 37.9306 12.1124 38.0981 11.9511C38.3455 11.7453 38.3407 11.3222 38.0871 11.1239C37.8691 10.9352 37.5608 11.0036 37.301 11.0303Z" fill="white"/>
<path d="M23.2369 13.5123C23.2198 13.2074 23.496 12.9346 23.8002 12.9524C26.8093 12.949 29.8178 12.9517 32.827 12.9517C32.8277 13.3161 32.8277 13.6804 32.827 14.0441C29.9942 14.0455 27.1621 14.0441 24.3293 14.0455C24.3286 14.8022 24.3272 15.5589 24.3299 16.3157C24.6259 16.4715 24.8816 16.7176 24.9971 17.0369C25.194 17.5243 25.0532 18.1211 24.6608 18.4704C24.2664 18.8388 23.6375 18.9181 23.1658 18.6556C22.6763 18.4013 22.3885 17.8148 22.5 17.272C22.5663 16.8516 22.8671 16.5037 23.2369 16.3102C23.2335 15.3778 23.2335 14.4447 23.2369 13.5123Z" fill="white"/>
<path d="M38.6185 15.6117C38.7326 15.339 38.8201 15.056 38.9486 14.79C39.3875 14.8051 39.8264 14.7928 40.2659 14.7969C40.3705 15.0676 40.4737 15.3383 40.5783 15.609C41.0172 15.7149 41.4294 15.9016 41.8238 16.1183C42.0809 15.9932 42.3447 15.8824 42.6052 15.7648C42.9196 16.0725 43.2225 16.3924 43.5431 16.6938C43.4398 16.9673 43.3113 17.2298 43.1924 17.4971C43.4207 17.886 43.5923 18.3044 43.7092 18.7398C43.9799 18.8362 44.2485 18.9401 44.5158 19.0475C44.5083 19.4952 44.5329 19.9443 44.5028 20.3921C44.2308 20.4816 43.9662 20.589 43.701 20.6949C43.593 21.1256 43.42 21.5378 43.1931 21.9192C43.3093 22.1858 43.4296 22.4511 43.5465 22.7184C43.232 23.0314 42.9196 23.3459 42.6052 23.6583C42.3304 23.5544 42.0699 23.3814 41.7876 23.322C41.4075 23.5346 41.0056 23.7109 40.5811 23.8128C40.4724 24.0835 40.3719 24.3569 40.2639 24.6276C39.8202 24.6263 39.3773 24.6276 38.9343 24.6263C38.8283 24.3549 38.7272 24.0814 38.6171 23.8114C38.1851 23.7075 37.7749 23.5291 37.3921 23.3049C37.1262 23.4225 36.8609 23.5421 36.5943 23.6576C36.2799 23.3459 35.9695 23.0301 35.6537 22.7197C35.7692 22.4518 35.8902 22.1865 36.0071 21.9192C35.7768 21.5364 35.6045 21.1208 35.4965 20.6874C35.2244 20.5869 34.9565 20.4775 34.6851 20.3777C34.6823 19.9341 34.6844 19.4904 34.6837 19.0468C34.9558 18.9436 35.2272 18.839 35.4972 18.7323C35.6024 18.2941 35.7891 17.8819 36.0071 17.4902C35.8814 17.2318 35.7706 16.968 35.6537 16.7062C35.9661 16.3924 36.2799 16.0793 36.5937 15.7655C36.8623 15.8811 37.1269 16.0048 37.3969 16.1183C37.7756 15.8893 38.1878 15.7163 38.6185 15.6117ZM39.0772 17.4513C38.1406 17.6557 37.388 18.4944 37.2957 19.4501C37.1822 20.3429 37.6498 21.2719 38.4325 21.7142C39.2316 22.1947 40.3179 22.1195 41.0404 21.5282C41.8731 20.8918 42.1608 19.6634 41.6974 18.7228C41.2612 17.7548 40.1087 17.1936 39.0772 17.4513Z" fill="white"/>
<path d="M15.4159 21.067C15.7543 20.9296 16.1255 20.9426 16.4837 20.9446C22.1848 20.9453 27.8853 20.9439 33.5865 20.9453C33.5885 20.9918 33.5926 21.0847 33.5947 21.1312C33.9303 21.2597 34.2667 21.3862 34.6009 21.5168C34.6638 21.6679 34.7267 21.8176 34.7896 21.9686C34.711 22.1457 34.6317 22.3221 34.5531 22.4991C28.3939 22.4984 22.2354 22.4991 16.0769 22.4984C15.9006 22.4724 15.7392 22.629 15.7659 22.8067C15.7638 26.6362 15.7693 30.4664 15.7631 34.2966C22.7768 34.3089 29.7912 34.2993 36.8055 34.302C36.8069 31.1213 36.8042 27.9412 36.8069 24.7604C36.9867 24.6805 37.1665 24.6012 37.3469 24.5219C37.4925 24.5861 37.6395 24.6456 37.7885 24.703C37.9246 25.0393 38.0504 25.3798 38.1816 25.7181C38.226 25.7195 38.3135 25.7222 38.3573 25.7236C38.358 28.9194 38.3566 32.1159 38.3587 35.3117C38.3675 35.6535 38.345 36.0056 38.198 36.3193C37.9164 36.9728 37.2335 37.4267 36.5212 37.4267C34.374 37.4315 32.2268 37.4267 30.0803 37.4288C30.079 38.4118 30.0797 39.3941 30.0803 40.3764C31.0189 40.3778 31.9582 40.3758 32.8974 40.3771C33.4716 40.373 34.0869 40.6355 34.3665 41.1592C34.5449 41.4839 34.4731 41.8653 34.4888 42.2194C34.4813 42.4006 34.5216 42.6125 34.3897 42.7608C34.2933 42.8832 34.1313 42.9133 33.9843 42.9071C28.8341 42.9051 23.6833 42.9078 18.5324 42.9057C18.302 42.9276 18.0764 42.7335 18.086 42.4983C18.0881 42.1435 18.0621 41.786 18.1051 41.434C18.2501 40.7852 18.933 40.4031 19.5605 40.3819C20.5374 40.3703 21.5142 40.3812 22.4911 40.3764C22.4911 39.3941 22.4918 38.4111 22.4911 37.4288C20.3296 37.4254 18.1673 37.4336 16.0058 37.4247C15.0467 37.4144 14.2032 36.5517 14.2148 35.592C14.2114 31.3311 14.2134 27.071 14.2141 22.8101C14.2011 22.0527 14.7063 21.3267 15.4159 21.067Z" fill="white"/>
<path d="M27.7265 23.9441C30.0651 23.9209 32.4057 23.9414 34.7457 23.9339C34.9337 23.9236 35.134 23.9844 35.2509 24.1403C35.445 24.3679 35.393 24.748 35.149 24.9196C34.9754 25.0556 34.7429 25.0249 34.5379 25.029C32.3483 25.0276 30.1588 25.0269 27.9692 25.0297C27.7293 25.0502 27.4586 24.9791 27.3389 24.7514C27.1434 24.4418 27.3615 23.9831 27.7265 23.9441Z" fill="white"/>
<path d="M20.9767 24.1268C21.3629 24.1247 21.7499 24.1254 22.1368 24.1268C22.2263 24.3619 22.3166 24.5964 22.4068 24.8309C22.7835 24.9273 23.1451 25.077 23.48 25.2745C23.7104 25.174 23.9401 25.0722 24.1691 24.9676C24.4439 25.2404 24.7201 25.5117 24.9894 25.7893C24.8848 26.019 24.7809 26.2487 24.6818 26.4811C24.8828 26.814 25.0284 27.1763 25.1275 27.5516C25.3633 27.6391 25.5985 27.728 25.8316 27.8216C25.8316 28.2078 25.833 28.5934 25.8309 28.9796C25.5958 29.0726 25.3592 29.1608 25.1241 29.2517C25.0297 29.6277 24.878 29.9872 24.6818 30.3215C24.783 30.5526 24.8869 30.7836 24.9887 31.0147C24.7173 31.2874 24.4446 31.5581 24.1732 31.8316C23.9394 31.7331 23.7104 31.6238 23.4766 31.5246C23.154 31.7242 22.7971 31.8562 22.4355 31.9669C22.2858 32.172 22.2482 32.4516 22.1272 32.6792C21.7444 32.671 21.3616 32.6772 20.9788 32.6751C20.8865 32.4406 20.7969 32.2048 20.706 31.9697C20.3307 31.8726 19.9698 31.7236 19.6362 31.5253C19.4051 31.6279 19.1741 31.7297 18.943 31.8323C18.6696 31.5602 18.3961 31.2874 18.1248 31.0133C18.2266 30.7823 18.3298 30.5519 18.4317 30.3208C18.2328 29.9879 18.0837 29.6277 17.9874 29.2524C17.7536 29.1574 17.517 29.0678 17.2812 28.9782C17.2812 28.5934 17.2798 28.2078 17.2819 27.823C17.5136 27.7355 17.742 27.6398 17.9764 27.5598C18.0899 27.1852 18.2246 26.8147 18.4317 26.4804C18.3312 26.2473 18.2239 26.0162 18.1254 25.7824C18.4003 25.5138 18.6689 25.239 18.9423 24.9683C19.1748 25.0681 19.4051 25.1727 19.6369 25.2752C19.9698 25.0777 20.328 24.9252 20.704 24.8329C20.7969 24.5985 20.8865 24.3626 20.9767 24.1268ZM21.1681 26.4202C20.8345 26.4852 20.5187 26.6356 20.2589 26.855C19.522 27.4511 19.319 28.5872 19.805 29.4007C20.2658 30.2408 21.3657 30.6435 22.2585 30.2907C23.1922 29.966 23.7699 28.8901 23.5183 27.9317C23.2996 26.907 22.1928 26.1933 21.1681 26.4202Z" fill="white"/>
<path d="M41.2599 30.5229C41.2626 28.738 41.2585 26.9538 41.262 25.1689C41.6256 25.1696 41.99 25.1683 42.3543 25.1696C42.355 26.9538 42.3537 28.738 42.355 30.5222C42.625 30.6685 42.8664 30.8824 42.9915 31.1688C43.2218 31.6515 43.1124 32.2688 42.7262 32.6399C42.353 33.0207 41.7371 33.1294 41.2565 32.897C40.7766 32.6796 40.4594 32.1505 40.5066 31.6234C40.5312 31.1518 40.8422 30.73 41.2599 30.5229Z" fill="white"/>
<path d="M27.648 25.9194C27.7526 25.89 27.8633 25.8948 27.972 25.8921C30.2511 25.8969 32.5309 25.8907 34.8107 25.8955C35.1046 25.8798 35.3739 26.1382 35.3705 26.4328C35.3821 26.7322 35.1101 27.0002 34.8107 26.9852C32.5083 26.9906 30.2053 26.9852 27.9023 26.9879C27.6514 27.0118 27.3848 26.8758 27.3014 26.6304C27.1872 26.3501 27.3581 26.0021 27.648 25.9194Z" fill="white"/>
<path d="M27.5853 27.9033C27.7056 27.8466 27.8416 27.8555 27.9715 27.8521C30.2506 27.8562 32.5304 27.85 34.8095 27.8548C35.113 27.8377 35.3885 28.1132 35.37 28.4167C35.368 28.7079 35.1014 28.9581 34.8108 28.9451C32.5078 28.9499 30.2041 28.9451 27.9011 28.9479C27.6741 28.9649 27.4321 28.8638 27.3289 28.6525C27.1812 28.388 27.3077 28.0223 27.5853 27.9033Z" fill="white"/>
<path d="M27.7255 29.8224C30.0634 29.8005 32.4026 29.8203 34.7405 29.8121C34.9627 29.7943 35.1985 29.8928 35.3038 30.0978C35.515 30.4444 35.2136 30.9339 34.8096 30.9052C32.4853 30.9086 30.1611 30.9079 27.8369 30.9052C27.5758 30.9188 27.3249 30.7254 27.2777 30.4677C27.2094 30.1765 27.4281 29.8579 27.7255 29.8224Z" fill="white"/>
<path d="M27.6514 31.797C27.7553 31.7689 27.8647 31.773 27.9714 31.771C30.2525 31.7758 32.5337 31.7696 34.8148 31.7744C35.1327 31.7566 35.4116 32.0636 35.3672 32.3787C35.3419 32.6542 35.0828 32.8771 34.8066 32.8641C32.481 32.8675 30.1548 32.8675 27.8299 32.8641C27.5797 32.8743 27.3383 32.6952 27.283 32.4505C27.2071 32.1791 27.3814 31.8735 27.6514 31.797Z" fill="white"/>
</svg>
