<svg width="60" height="60" viewBox="0 0 60 60" fill="none" xmlns="http://www.w3.org/2000/svg">
<path d="M58.1195 46.5307L54.0503 51.2781H22.1291C21.5452 51.2781 20.9905 51.5333 20.6105 51.9766L15.4476 58H1.73535L1.73535 2L58.1195 2V46.5307Z" fill="white" fill-opacity="0.05" stroke="#9B9B9B" stroke-width="2"/>
<path opacity="0.38" d="M28.1138 59.6549C27.9238 59.8741 27.6481 60 27.3581 60H19.3869C18.539 60 18.0759 59.0111 18.6186 58.3598L21.7533 54.5982C21.9433 54.3702 22.2247 54.2384 22.5215 54.2384H30.6181C31.4751 54.2384 31.9351 55.2458 31.3738 55.8933L28.1138 59.6549Z" fill="#D9D9D9"/>
<g clip-path="url(#clip0_4087_524)">
<path d="M14.6229 8H17.1686C17.4782 8.05674 17.7202 8.36367 17.6566 8.68086C17.6163 8.94268 17.3784 9.15801 17.1118 9.16143C16.3106 9.18057 15.5095 9.15186 14.709 9.17305C14.4267 9.18057 14.1799 9.42939 14.1724 9.71104C14.1525 10.5095 14.1806 11.3093 14.1614 12.1077C14.1642 12.4728 13.7649 12.7564 13.4197 12.6416C13.2017 12.5862 13.0608 12.3907 13 12.1843V9.63311C13.0485 8.78408 13.7752 8.05537 14.6229 8Z" fill="white"/>
<path d="M43.8453 8H46.3896C47.2304 8.06357 47.9448 8.78408 48.0001 9.6249V12.1658C47.9489 12.3812 47.804 12.5835 47.5811 12.6409C47.2373 12.7564 46.8367 12.4755 46.8387 12.1104C46.8196 11.3113 46.8476 10.5102 46.8271 9.71035C46.8196 9.42803 46.5714 9.17988 46.2891 9.17236C45.4907 9.15254 44.6909 9.18057 43.8917 9.16143C43.6005 9.16074 43.3456 8.90508 43.336 8.61592C43.3093 8.3124 43.5527 8.0458 43.8453 8Z" fill="white"/>
<path d="M21.0491 8.66947C21.4797 8.55873 21.9275 8.58676 22.3677 8.58334C27.9493 8.58334 33.5308 8.58402 39.1117 8.58334C39.5717 8.57377 40.0359 8.65307 40.4556 8.84584C41.4557 9.28812 42.1475 10.3327 42.1632 11.4257C42.1701 13.5893 42.1646 15.7529 42.166 17.9164C41.4632 17.9164 40.7598 17.9185 40.0571 17.9158C39.9368 17.9424 39.9429 17.7886 39.9053 17.7182C39.2327 15.6408 37.8361 13.8108 36.0218 12.5981C34.3839 11.4927 32.409 10.9007 30.4341 10.9178C28.4045 10.926 26.3852 11.5829 24.7371 12.7662C22.9836 14.0131 21.6541 15.8486 21.0327 17.9089C20.2999 17.926 19.5664 17.913 18.8335 17.9164C18.8329 15.8171 18.8335 13.7185 18.8329 11.6192C18.8274 11.2097 18.8869 10.7961 19.0427 10.4161C19.3818 9.55746 20.1522 8.88685 21.0491 8.66947Z" fill="white"/>
<path d="M25.9898 13.3402C27.6961 12.306 29.7619 11.8883 31.7361 12.1754C33.6974 12.4481 35.5506 13.4168 36.8979 14.8674C37.7162 15.7424 38.3472 16.7883 38.7484 17.9162C36.9759 17.9169 35.2033 17.9176 33.4314 17.9155C33.3392 17.9292 33.2824 17.8417 33.2161 17.7952C32.3124 16.9619 31.0115 16.5976 29.8043 16.8122C28.9915 16.9476 28.2354 17.3488 27.6435 17.9183C25.8463 17.9142 24.0491 17.9183 22.252 17.9162C22.9185 16.0186 24.2638 14.3725 25.9898 13.3402Z" fill="white"/>
<path d="M14.9509 17.9593C15.5107 17.8307 16.1273 18.0003 16.5402 18.4002C16.9921 18.824 17.1855 19.4967 17.029 20.0962C16.8396 20.9042 16.0152 21.4962 15.1874 21.4094C14.3391 21.3567 13.6097 20.6027 13.5864 19.7523C13.5276 18.9265 14.1415 18.1254 14.9509 17.9593Z" fill="white"/>
<path d="M45.2958 17.9563C46.2221 17.7294 47.2352 18.4034 47.3849 19.3434C47.5681 20.1999 46.9959 21.1221 46.1517 21.3463C45.5153 21.5391 44.7818 21.3224 44.3497 20.8165C43.9662 20.3872 43.8247 19.7624 43.9785 19.2087C44.1392 18.5887 44.669 18.0862 45.2958 17.9563Z" fill="white"/>
<path d="M18.1934 19.083C26.3979 19.083 34.6017 19.0837 42.8062 19.083C42.7364 19.4686 42.7344 19.8644 42.8062 20.2499C34.6017 20.2499 26.3979 20.2499 18.194 20.2499C18.2638 19.8644 18.2624 19.4686 18.1934 19.083Z" fill="white"/>
<path d="M18.8338 21.417C19.4224 21.4163 20.0116 21.4163 20.6002 21.417C20.7219 23.4979 21.521 25.5316 22.8527 27.1346C24.0824 28.6317 25.7648 29.7439 27.6173 30.3072C27.0192 30.8807 26.4169 31.4515 25.8598 32.066C25.3902 32.576 25.1687 33.2999 25.2733 33.9856C25.3874 34.8401 26.017 35.5927 26.8319 35.8696C27.5155 36.1081 28.3084 36.0083 28.9086 35.6009C29.2784 35.3589 29.5403 34.9952 29.8171 34.6589C30.8958 33.2849 31.9103 31.8616 32.9227 30.4384C34.8108 29.951 36.5505 28.9044 37.8521 27.4504C39.3457 25.8009 40.2549 23.6387 40.3937 21.4177C40.9843 21.4156 41.5756 21.417 42.1662 21.417C42.1669 27.2884 42.1662 33.1598 42.1669 39.0312C42.1826 39.5869 42.1574 40.1618 41.9181 40.6739C41.4738 41.715 40.3793 42.4293 39.2466 42.4156C33.4156 42.4177 27.5838 42.4177 21.7528 42.4156C20.512 42.4334 19.3287 41.5666 18.9705 40.3806C18.8489 40.0128 18.8263 39.6225 18.8331 39.239C18.8345 33.2979 18.8331 27.3574 18.8338 21.417ZM21.6372 30.1739C21.0678 30.2162 20.5852 30.7344 20.5859 31.3059C20.5797 33.222 20.5852 35.1381 20.5831 37.0549C20.5797 37.4767 20.6344 37.9019 20.7739 38.3011C21.2216 39.6594 22.5724 40.6527 24.0045 40.6629C25.9657 40.6711 27.9277 40.665 29.8889 40.6663C30.3435 40.6793 30.7885 40.4025 30.9744 39.9868C31.1365 39.6485 31.0701 39.2636 31.0831 38.902C31.0722 38.5684 31.1282 38.2191 30.999 37.9012C30.835 37.4801 30.4071 37.1759 29.9532 37.1691C29.1349 37.1602 28.3166 37.1739 27.4984 37.1629C26.6452 37.1458 25.8058 36.7992 25.1865 36.2134C24.5124 35.5845 24.105 34.6801 24.0872 33.7573C24.0763 32.9424 24.09 32.1269 24.0811 31.312C24.0845 30.7187 23.5677 30.1841 22.9743 30.1704C22.5286 30.1663 22.0823 30.1588 21.6372 30.1739ZM33.5359 36.0644C32.8242 36.2524 32.276 36.9298 32.2541 37.6681C32.2507 38.1459 32.2377 38.6251 32.2623 39.1023C32.3348 39.9588 33.1223 40.6725 33.9816 40.665C35.5333 40.6691 37.0851 40.6663 38.6368 40.6663C39.3033 40.6807 39.9562 40.2794 40.2399 39.6751C40.5181 39.1166 40.3855 38.4754 40.4176 37.8766C40.46 37.1827 40.069 36.4814 39.4373 36.1813C39.1475 36.0329 38.8173 35.9906 38.4947 35.9988C37.1528 36.0015 35.8102 35.9994 34.4683 36.0001C34.1573 36.0029 33.8394 35.9782 33.5359 36.0644Z" fill="white"/>
<path d="M21.7725 21.4174C23.3352 21.4153 24.8985 21.4174 26.4612 21.416C26.6103 22.4113 27.1284 23.3485 27.9118 23.9843C28.7745 24.7021 29.9441 25.0322 31.0557 24.8736C32.1385 24.7321 33.1475 24.1258 33.7887 23.2433C34.1858 22.708 34.4326 22.0723 34.5386 21.416C36.1026 21.4174 37.6674 21.4153 39.2314 21.4167C39.0913 23.2487 38.3715 25.0329 37.1848 26.437C36.3433 27.4446 35.2693 28.252 34.0785 28.8016C34.9781 27.5116 35.8777 26.2217 36.7657 24.9235C37.0077 24.5619 36.9934 24.0547 36.7391 23.7026C36.4725 23.3123 35.9365 23.138 35.4915 23.2986C35.2167 23.3875 35.0185 23.6063 34.8059 23.7895C32.7277 25.6317 30.6585 27.4843 28.618 29.3683C26.6902 28.9437 24.9156 27.8527 23.6838 26.3085C22.5634 24.9256 21.89 23.192 21.7725 21.4174Z" fill="white"/>
<path d="M27.6392 21.4174C28.0418 21.4153 28.4451 21.4167 28.8478 21.416C29.1021 22.1153 29.8185 22.6219 30.5677 22.5815C31.2711 22.5638 31.913 22.0723 32.1516 21.4167C32.5542 21.4167 32.9575 21.4153 33.3608 21.4174C33.1879 22.2329 32.6636 22.9698 31.9321 23.3752C31.0934 23.8571 30.014 23.8742 29.1588 23.4237C28.3829 23.0279 27.8162 22.2685 27.6392 21.4174Z" fill="white"/>
<path d="M28.5632 31.0181C30.817 28.8982 33.133 26.8468 35.4442 24.7905C34.0189 26.844 32.5991 28.9017 31.1396 30.9313C30.2886 32.1002 29.4532 33.2828 28.5229 34.3909C28.2638 34.719 27.8311 34.9016 27.4154 34.8366C26.9273 34.773 26.5104 34.3738 26.4208 33.8912C26.3463 33.5241 26.4611 33.1276 26.7182 32.8556C27.302 32.213 27.937 31.6189 28.5632 31.0181Z" fill="white"/>
<path d="M21.7508 31.333C22.1391 31.3337 22.5274 31.333 22.9163 31.3337C22.9177 32.1007 22.9156 32.8684 22.917 33.6354C22.915 34.1897 23.0086 34.7448 23.2 35.265C23.6744 36.5823 24.7743 37.6521 26.1039 38.091C26.6159 38.264 27.1573 38.3398 27.6974 38.3337C28.437 38.333 29.1767 38.333 29.9163 38.3337C29.917 38.722 29.917 39.1109 29.9163 39.4999C27.9694 39.4992 26.0226 39.502 24.0757 39.4985C23.4536 39.4985 22.8391 39.236 22.4091 38.7883C21.9777 38.3501 21.7399 37.7362 21.7508 37.1237C21.7501 35.1933 21.7494 33.2628 21.7508 31.333Z" fill="white"/>
<path d="M33.7951 37.2052C33.8997 37.1655 34.0139 37.1683 34.1246 37.1655C35.6271 37.1689 37.1304 37.1642 38.6336 37.1676C38.9474 37.1457 39.2454 37.4096 39.2461 37.7261C39.2529 38.1403 39.2563 38.5546 39.244 38.9688C39.229 39.2724 38.9392 39.5157 38.6391 39.4986C37.1105 39.5014 35.5813 39.4993 34.0528 39.5C33.8457 39.5089 33.6311 39.4187 33.5169 39.2409C33.4027 39.0823 33.4178 38.8786 33.415 38.694C33.4219 38.3741 33.4089 38.0542 33.4205 37.735C33.4198 37.5025 33.5777 37.2838 33.7951 37.2052Z" fill="white"/>
<path d="M13 38.859C13.0349 38.6313 13.1887 38.4194 13.417 38.3593C13.7622 38.2424 14.1642 38.5247 14.1614 38.8911C14.1806 39.6902 14.1525 40.4907 14.173 41.2898C14.1799 41.5975 14.469 41.8463 14.7726 41.8319C15.5033 41.8374 16.2348 41.8313 16.9662 41.8326C17.1351 41.8319 17.3203 41.8483 17.4522 41.9666C17.6765 42.1423 17.7318 42.4882 17.5753 42.7261C17.4933 42.8724 17.3347 42.9455 17.1829 43.0002H14.6372C13.7957 42.9523 13.0731 42.2421 13 41.4047V38.859Z" fill="white"/>
<path d="M46.8384 38.8938C46.8357 38.5766 47.1385 38.308 47.4523 38.336C47.7333 38.3456 47.9568 38.5807 47.9999 38.8507V41.3862C47.9377 42.2195 47.2329 42.927 46.4023 43.0002H43.8327C43.5955 42.9475 43.3808 42.7698 43.3439 42.521C43.2721 42.188 43.5497 41.836 43.8922 41.8387C44.6708 41.823 45.4501 41.8421 46.2287 41.8312C46.5315 41.8463 46.82 41.5961 46.8268 41.2891C46.8473 40.4914 46.82 39.6916 46.8384 38.8938Z" fill="white"/>
<path d="M20 30H24L25 36L29 36.5L30.5 35.5L32 41.5L20 41V30Z" fill="white"/>
</g>
<defs>
<clipPath id="clip0_4087_524">
<rect width="35" height="35" fill="white" transform="translate(13 8)"/>
</clipPath>
</defs>
</svg>
